<svg width="70" height="70" viewBox="0 0 70 70" fill="none" xmlns="http://www.w3.org/2000/svg">
<path d="M35.1895 18.0098C35.3775 18.0284 35.5622 18.0745 35.7373 18.1475C35.9707 18.2447 36.1829 18.3871 36.3613 18.5664L53.4365 35.7061C53.7973 36.0682 54 36.559 54 37.0703C53.9999 37.5814 53.7972 38.0716 53.4365 38.4336C53.0757 38.7958 52.5863 39 52.0752 39C51.5641 39 51.0747 38.7957 50.7139 38.4336L35 22.6592L19.2861 38.4336C19.1076 38.6128 18.8957 38.7554 18.6621 38.8525C18.4285 38.9497 18.1778 39 17.9248 39C17.6718 39 17.4212 38.9497 17.1875 38.8525C16.9539 38.7554 16.7421 38.6129 16.5635 38.4336C16.3848 38.2543 16.2431 38.0416 16.1465 37.8076C16.05 37.5738 16 37.3233 16 37.0703C16 36.8171 16.0499 36.5661 16.1465 36.332C16.2431 36.098 16.3848 35.8854 16.5635 35.7061L33.6387 18.5664C33.8171 18.3871 34.0293 18.2447 34.2627 18.1475C34.4964 18.0502 34.7469 18 35 18L35.1895 18.0098Z" fill="#EBEBEB" stroke="#EBEBEB"/>
<path d="M35 31C35.2531 31 35.5036 31.0502 35.7373 31.1475C35.9707 31.2447 36.1829 31.3871 36.3613 31.5664L53.4365 48.7061C53.7973 49.0682 54 49.559 54 50.0703C53.9999 50.5814 53.7972 51.0716 53.4365 51.4336C53.0757 51.7958 52.5863 52 52.0752 52C51.5641 52 51.0747 51.7957 50.7139 51.4336L35 35.6592L19.2861 51.4336C18.9253 51.7957 18.4359 52 17.9248 52C17.4137 52 16.9243 51.7958 16.5635 51.4336C16.2028 51.0716 16.0001 50.5814 16 50.0703C16 49.559 16.2027 49.0682 16.5635 48.7061L33.6387 31.5664C33.8171 31.3871 34.0293 31.2447 34.2627 31.1475C34.4964 31.0502 34.7469 31 35 31Z" fill="#EBEBEB" stroke="#EBEBEB"/>
</svg>
