<svg width="70" height="70" viewBox="0 0 70 70" fill="none" xmlns="http://www.w3.org/2000/svg">
<path d="M35 11.5C35.2564 11.5 35.5106 11.5492 35.748 11.6455C35.9855 11.7418 36.2021 11.8835 36.3848 12.0625H36.3838L53.9209 29.2012C54.2903 29.5622 54.5 30.0547 54.5 30.5703C54.4999 31.0857 54.2901 31.5775 53.9209 31.9385C53.552 32.299 53.054 32.4999 52.5371 32.5C52.0201 32.5 51.5214 32.2991 51.1523 31.9385L35 16.1484L18.8477 31.9385C18.4786 32.2991 17.9799 32.5 17.4629 32.5C16.946 32.4999 16.448 32.299 16.0791 31.9385C15.7099 31.5775 15.5001 31.0858 15.5 30.5703C15.5 30.0547 15.7097 29.5622 16.0791 29.2012L33.6152 12.0625L33.7588 11.9355C33.9079 11.8158 34.0739 11.7177 34.252 11.6455C34.4894 11.5492 34.7436 11.5 35 11.5Z" fill="#EBEBEB" stroke="#EBEBEB"/>
<path d="M35.1895 24.5098C35.3775 24.5284 35.5622 24.5745 35.7373 24.6475C35.9707 24.7447 36.1829 24.8871 36.3613 25.0664L53.4365 42.2061C53.7973 42.5682 54 43.059 54 43.5703C53.9999 44.0814 53.7972 44.5716 53.4365 44.9336C53.0757 45.2958 52.5863 45.5 52.0752 45.5C51.5641 45.5 51.0747 45.2957 50.7139 44.9336L35 29.1592L19.2861 44.9336C19.1076 45.1128 18.8957 45.2554 18.6621 45.3525C18.4285 45.4497 18.1778 45.5 17.9248 45.5C17.6718 45.5 17.4212 45.4497 17.1875 45.3525C16.9539 45.2554 16.7421 45.1129 16.5635 44.9336C16.3848 44.7543 16.2431 44.5416 16.1465 44.3076C16.05 44.0738 16 43.8233 16 43.5703C16 43.3171 16.0499 43.0661 16.1465 42.832C16.2431 42.598 16.3848 42.3854 16.5635 42.2061L33.6387 25.0664C33.8171 24.8871 34.0293 24.7447 34.2627 24.6475C34.4964 24.5502 34.7469 24.5 35 24.5L35.1895 24.5098Z" fill="#EBEBEB" stroke="#EBEBEB"/>
<path d="M35 37.5C35.2531 37.5 35.5036 37.5502 35.7373 37.6474C35.9707 37.7447 36.1829 37.8871 36.3613 38.0664L53.4365 55.206C53.7973 55.5681 54 56.059 54 56.5703C53.9999 57.0814 53.7972 57.5716 53.4365 57.9336C53.0757 58.2957 52.5863 58.5 52.0752 58.5C51.5641 58.5 51.0747 58.2957 50.7139 57.9336L35 42.1592L19.2861 57.9336C18.9253 58.2957 18.4359 58.5 17.9248 58.5C17.4137 58.5 16.9243 58.2957 16.5635 57.9336C16.2028 57.5716 16.0001 57.0814 16 56.5703C16 56.059 16.2027 55.5681 16.5635 55.206L33.6387 38.0664C33.8171 37.8871 34.0293 37.7447 34.2627 37.6474C34.4964 37.5502 34.7469 37.5 35 37.5Z" fill="#EBEBEB" stroke="#EBEBEB"/>
</svg>
