<svg width="32" height="32" viewBox="0 0 32 32" fill="none" xmlns="http://www.w3.org/2000/svg">
<path d="M15.192 14.608C15.4372 14.7484 15.641 14.9511 15.7827 15.1955C15.9244 15.4399 15.999 15.7175 15.999 16C15.999 16.2826 15.9244 16.5601 15.7827 16.8045C15.641 17.049 15.4372 17.2516 15.192 17.392L2.466 24.776C1.426 25.38 0 24.69 0 23.384V8.61602C0 7.31002 1.426 6.62002 2.466 7.22402L15.192 14.608Z" fill="#858585"/>
<path d="M31.192 14.608C31.4372 14.7484 31.641 14.9511 31.7827 15.1955C31.9244 15.4399 31.999 15.7175 31.999 16C31.999 16.2826 31.9244 16.5601 31.7827 16.8045C31.641 17.049 31.4372 17.2516 31.192 17.392L18.466 24.776C17.426 25.38 16 24.69 16 23.384V8.61602C16 7.31002 17.426 6.62002 18.466 7.22402L31.192 14.608Z" fill="#858585"/>
</svg>
