<?xml version="1.0" encoding="UTF-8" standalone="no"?>
<svg
   width="50px"
   height="50px"
   viewBox="0 0 93 93"
   version="1.1"
   id="svg1"
   xmlns="http://www.w3.org/2000/svg">
  <defs
     id="defs1" />
  <path
     style="fill:#313131;fill-opacity:1;stroke-width:0.115242"
     d="M 40.16171,91.309724 C 31.548736,90.614662 23.402059,87.11931 16.729007,81.255866 6.8975653,72.617223 0.92193308,59.170938 0.92193308,45.687008 c 0,-7.051635 1.58357962,-13.82056 4.73011202,-20.218607 C 10.413707,15.786208 17.897846,8.8020014 28.125824,4.4958431 32.042704,2.8467681 37.741261,1.2681828 41.314127,0.84248726 43.310272,0.60465283 49.66156,0.64192612 51.685874,0.90335509 61.917591,2.2247249 70.347215,6.0323604 77.6176,12.616637 c 3.106122,2.812996 6.266226,6.806295 8.457503,10.687409 3.02977,5.366224 5.000007,11.652812 5.734711,18.298185 0.263692,2.385079 0.261019,7.228112 -0.0053,9.565056 -0.662931,5.817691 -2.079216,10.74298 -4.461138,15.514107 -2.32685,4.660814 -5.07729,8.337827 -9.345968,12.494456 -3.217471,3.133013 -6.100274,5.28078 -9.71676,7.239247 -5.682778,3.077448 -10.767999,4.493067 -17.63197,4.908375 -2.316338,0.140151 -8.683354,0.131804 -10.486988,-0.01374 z m 9.334573,-3.557048 c 9.144169,-0.611005 16.529655,-3.368811 23.188429,-8.658765 1.73366,-1.377278 4.666771,-4.282746 5.977167,-5.920838 5.447273,-6.809489 8.611552,-14.568027 9.515453,-23.331065 0.17997,-1.744745 0.177035,-6.381444 -0.0052,-8.124536 C 87.127387,31.720651 82.869041,22.9051 75.699676,15.897096 72.312744,12.586393 68.747121,10.135133 64.578896,8.2518882 58.59872,5.5499866 51.702237,4.261166 44.398825,4.4806189 41.222201,4.5760701 39.988818,4.7076554 37.725409,5.1925826 32.111023,6.3954443 27.82594,8.1366193 23.710062,10.887495 17.203356,15.236297 12.450817,20.585049 9.0649217,27.369889 6.7661252,31.976341 5.4605381,36.260304 4.762573,41.486989 4.5061361,43.407307 4.4719433,49.473594 4.706711,51.39777 c 1.1730486,9.614423 5.1044538,17.818928 11.710774,24.439384 3.829728,3.837921 7.834644,6.552906 12.752864,8.645336 6.086042,2.589273 13.254966,3.742662 20.325934,3.270186 z"
     id="path6" />
  <g
     id="g6"
     style="display:inline;fill:#00aff0;fill-opacity:1"
     transform="translate(0.95542367,0.20065709)">
    <path
       d="m 55.020166,31.566753 10.293132,-2.758016 c 0.677852,-0.181636 1.016776,-0.27247 1.283505,-0.404054 1.095922,-0.540376 1.758368,-1.687619 1.678316,-2.906786 -0.01932,-0.296875 -0.110257,-0.635803 -0.291802,-1.313716 -0.544936,-2.033644 -0.817407,-3.05048 -1.212217,-3.850974 -1.621225,-3.287307 -5.062739,-5.274401 -8.720237,-5.034676 -0.372155,0.0244 -0.766663,0.08619 -1.247866,0.189612 0.0577,0.248602 0.07371,0.511229 0.04166,0.779194 z"
       fill="#1c274c"
       id="path1-8"
       style="fill:#00aff0;fill-opacity:1;stroke-width:3.02073" />
    <path
       d="m 37.829354,20.536564 14.403283,-3.859371 -1.813644,15.206191 c -0.03686,0.310624 -0.0094,0.614086 0.0725,0.896827 l -14.437088,3.868405 1.824734,-15.299447 c 0.03342,-0.279989 0.01419,-0.554154 -0.04978,-0.812605 z"
       fill="#1c274c"
       id="path2-8"
       style="fill:#00aff0;fill-opacity:1;stroke-width:3.02073" />
    <path
       fill-rule="evenodd"
       clip-rule="evenodd"
       d="M 58.520583,40.341635 H 22.271849 v 15.103641 c 0,8.543829 0,12.815743 2.654251,15.470054 2.654255,2.654315 6.926198,2.654315 15.470118,2.654315 h 12.082911 c 8.54383,0 12.815739,0 15.470055,-2.654315 2.654315,-2.654311 2.654315,-6.926225 2.654315,-15.470054 v -3.02073 c 0,-5.695881 0,-8.543824 -1.769543,-10.313368 -1.769544,-1.769543 -4.617487,-1.769543 -10.313373,-1.769543 z m -9.640955,12.758044 c 2.399669,1.720305 3.599501,2.580609 3.599501,3.855961 0,1.275351 -1.199832,2.135655 -3.599501,3.855961 -2.432589,1.743866 -3.648735,2.615951 -4.555859,1.975556 -0.906827,-0.640093 -0.906827,-2.370669 -0.906827,-5.831517 0,-3.460849 0,-5.191424 0.906827,-5.831517 0.907124,-0.640391 2.12327,0.231689 4.555859,1.975556 z"
       fill="#1c274c"
       id="path3-2"
       style="fill:#00aff0;fill-opacity:1;stroke-width:3.02073" />
    <path
       d="m 31.453439,36.965215 c -0.03704,0.310651 -0.0094,0.613964 0.07238,0.896703 l -9.250105,2.478811 c -1.461398,-5.454166 -2.192115,-8.181189 -1.563651,-10.526662 0.411727,-1.536526 1.220646,-2.937628 2.345477,-4.062459 1.717009,-1.717012 4.444031,-2.447693 9.898077,-3.909122 l 0.311439,-0.08343 z"
       fill="#1c274c"
       id="path4-4"
       style="fill:#00aff0;fill-opacity:1;stroke-width:3.02073" />
  </g>
</svg>
