<svg width="32" height="32" viewBox="0 0 32 32" fill="none" xmlns="http://www.w3.org/2000/svg">
<path d="M11.5645 23.2422L2.64258 16.836C2.43292 16.7114 2.25925 16.5345 2.13863 16.3225C2.01801 16.1106 1.95459 15.8709 1.95459 15.627C1.95459 15.3831 2.01801 15.1434 2.13863 14.9315C2.25925 14.7195 2.43292 14.5426 2.64258 14.418L11.5645 8.00787C11.7771 7.88277 12.0191 7.81618 12.2659 7.81484C12.5126 7.8135 12.7553 7.87747 12.9693 8.00025C13.1833 8.12303 13.3611 8.30025 13.4845 8.51393C13.6079 8.7276 13.6725 8.97011 13.6719 9.21685V11.7188C16.6016 11.7188 25.3906 11.7188 27.3438 27.3438C22.4609 18.5547 13.6719 19.5313 13.6719 19.5313V22.0333C13.6719 23.127 12.4883 23.7872 11.5645 23.2442V23.2422Z" fill="#00D1FF"/>
</svg>
