<svg width="67" height="48" viewBox="0 0 67 48" fill="none" xmlns="http://www.w3.org/2000/svg">
<path d="M15.7653 17.358C15.7612 17.4549 15.7769 17.5516 15.8116 17.6421C15.8462 17.7327 15.899 17.8152 15.9668 17.8846C16.0345 17.9541 16.1157 18.0089 16.2054 18.0457C16.2951 18.0826 16.3913 18.1007 16.4883 18.099H18.9633C19.3773 18.099 19.7073 17.76 19.7613 17.349C20.0313 15.381 21.3813 13.947 23.7873 13.947C25.8453 13.947 27.7293 14.976 27.7293 17.451C27.7293 19.356 26.6073 20.232 24.8343 21.564C22.8153 23.031 21.2163 24.744 21.3303 27.525L21.3393 28.176C21.3424 28.3728 21.4228 28.5605 21.5632 28.6986C21.7035 28.8367 21.8924 28.914 22.0893 28.914H24.5223C24.7212 28.914 24.912 28.835 25.0526 28.6943C25.1933 28.5537 25.2723 28.3629 25.2723 28.164V27.849C25.2723 25.695 26.0913 25.068 28.3023 23.391C30.1293 22.002 32.0343 20.46 32.0343 17.223C32.0343 12.69 28.2063 10.5 24.0153 10.5C20.2143 10.5 16.0503 12.27 15.7653 17.358ZM20.4363 34.647C20.4363 36.246 21.7113 37.428 23.4663 37.428C25.2933 37.428 26.5503 36.246 26.5503 34.647C26.5503 32.991 25.2903 31.827 23.4633 31.827C21.7113 31.827 20.4363 32.991 20.4363 34.647Z" fill="#858585"/>
<path d="M34.7653 17.358C34.7612 17.4549 34.7769 17.5516 34.8116 17.6421C34.8462 17.7327 34.899 17.8152 34.9668 17.8846C35.0345 17.9541 35.1157 18.0089 35.2054 18.0457C35.2951 18.0826 35.3913 18.1007 35.4883 18.099H37.9633C38.3773 18.099 38.7073 17.76 38.7613 17.349C39.0313 15.381 40.3813 13.947 42.7873 13.947C44.8453 13.947 46.7293 14.976 46.7293 17.451C46.7293 19.356 45.6073 20.232 43.8343 21.564C41.8153 23.031 40.2163 24.744 40.3303 27.525L40.3393 28.176C40.3424 28.3728 40.4228 28.5605 40.5632 28.6986C40.7035 28.8367 40.8924 28.914 41.0893 28.914H43.5223C43.7212 28.914 43.912 28.835 44.0526 28.6943C44.1933 28.5537 44.2723 28.3629 44.2723 28.164V27.849C44.2723 25.695 45.0913 25.068 47.3023 23.391C49.1293 22.002 51.0343 20.46 51.0343 17.223C51.0343 12.69 47.2063 10.5 43.0153 10.5C39.2143 10.5 35.0503 12.27 34.7653 17.358ZM39.4363 34.647C39.4363 36.246 40.7113 37.428 42.4663 37.428C44.2933 37.428 45.5503 36.246 45.5503 34.647C45.5503 32.991 44.2903 31.827 42.4633 31.827C40.7113 31.827 39.4363 32.991 39.4363 34.647Z" fill="#858585"/>
</svg>
